Coordinates
version=1
nRows=8
nColumns=63
inDegrees=yes

Units are S.I. units (second, meters, Newtons, ...)
If the header above contains a line with 'inDegrees', this indicates whether rotational values are in degrees (yes) or radians (no).

endheader
time	pelvis_tilt	pelvis_list	pelvis_rotation	pelvis_tx	pelvis_ty	pelvis_tz	hip_flexion_r	hip_adduction_r	hip_rotation_r	knee_angle_r	knee_angle_r_beta	ankle_angle_r	subtalar_angle_r	mtp_angle_r	hip_flexion_l	hip_adduction_l	hip_rotation_l	knee_angle_l	knee_angle_l_beta	ankle_angle_l	subtalar_angle_l	mtp_angle_l	L5_S1_Flex_Ext	L5_S1_Lat_Bending	L5_S1_axial_rotation	L4_L5_Flex_Ext	L4_L5_Lat_Bending	L4_L5_axial_rotation	L3_L4_Flex_Ext	L3_L4_Lat_Bending	L3_L4_axial_rotation	L2_L3_Flex_Ext	L2_L3_Lat_Bending	L2_L3_axial_rotation	L1_L2_Flex_Ext	L1_L2_Lat_Bending	L1_L2_axial_rotation	L1_T12_Flex_Ext	L1_T12_Lat_Bending	L1_T12_axial_rotation	Abs_r3	Abs_r2	Abs_r1	Abs_t1	Abs_t2	neck_flexion	neck_bending	neck_rotation	arm_flex_r	arm_add_r	arm_rot_r	elbow_flex_r	pro_sup_r	wrist_flex_r	wrist_dev_r	arm_flex_l	arm_add_l	arm_rot_l	elbow_flex_l	pro_sup_l	wrist_flex_l	wrist_dev_l
      1.55000000	      4.81435730	     -0.54354726	    106.69710880	      0.19671212	      0.83575922	      0.66847044	     -1.63381081	      5.79731551	      0.22642889	      3.12111923	      0.05447381	     34.91752249	    -15.40038998	      0.00000000	      0.17517043	     -5.85384773	      8.18481581	      5.33163804	      0.09305464	     37.81648986	     15.83037809	      0.00000000	     -0.05035264	      0.82999079	     -1.01176990	     -0.09350989	      1.10388776	     -1.07500552	     -0.08272435	      2.01803962	     -1.07500552	     -0.05754803	      2.01803962	     -0.88529867	     -0.04675746	      1.69251723	     -0.82206305	     -0.02877150	      1.28565574	     -0.75882743	     -0.35966388	      9.38902186	     -5.62716067	      0.00000000	      0.00000000	      9.11635446	      2.29520248	      0.65715992	     61.70612525	    -11.60586110	     -2.90202596	     82.13398970	     88.89776655	    -15.65590881	    -10.61560474	     50.00083360	    -18.82472499	     -2.08210268	     98.68551168	     89.29878190	    -20.98189964	    -11.39980509
      1.56666667	      4.90325421	     -0.18656236	    106.41992248	      0.19590938	      0.83583595	      0.66798489	     -2.02639544	      5.91945144	      0.85256645	      3.18151286	      0.05552787	     34.73658014	    -15.24722680	      0.00000000	     -0.12864246	     -6.02769049	      7.25421366	      5.78715512	      0.10100491	     37.91869864	     15.86855702	      0.00000000	     -0.06053559	      0.87027192	     -0.78225616	     -0.11242065	      1.15746165	     -0.83114717	     -0.09945393	      2.11597914	     -0.83114717	     -0.06918613	      2.11597914	     -0.68447414	     -0.05621335	      1.77465849	     -0.63558313	     -0.03459004	      1.34805120	     -0.58669212	     -0.43239969	      9.84468999	     -4.35067408	      0.00000000	      0.00000000	      8.45907311	      1.88024730	     -0.03210653	     58.98599454	    -12.83229515	     -3.46569791	     83.95427886	     88.81408145	    -16.74620508	    -11.63546422	     47.87057623	    -18.04597282	     -1.00292062	     98.80838600	     89.29956018	    -20.46523091	    -11.19998997
      1.58333333	      4.98434362	      0.08467293	    105.99826285	      0.19515288	      0.83572688	      0.66741962	     -2.32322769	      5.99274876	      1.72996158	      3.34383223	      0.05836088	     34.51523629	    -15.22048555	      0.00000000	     -0.38197792	     -6.16528694	      6.05687907	      6.23389416	      0.10880198	     38.01557873	     15.95921049	      0.00000000	     -0.06537758	      0.91547879	     -0.62497463	     -0.12141270	      1.21758679	     -0.66403554	     -0.10740882	      2.22589512	     -0.66403554	     -0.07472004	      2.22589512	     -0.54685280	     -0.06070962	      1.86684434	     -0.50779189	     -0.03735675	      1.41807664	     -0.46873097	     -0.46698551	     10.35607914	     -3.47592140	      0.00000000	      0.00000000	      7.90420353	      1.37282597	      0.05826629	     56.66515832	    -13.73262766	     -3.09678760	     84.74947887	     88.67160174	    -18.35859730	    -12.53851321	     45.52759851	    -17.42561429	     -0.22853102	     98.67591729	     89.28868147	    -19.72319369	    -11.44475243
      1.60000000	      4.90466119	      0.35541808	    106.01160649	      0.19435025	      0.83554952	      0.66673104	     -2.66859897	      5.95892024	      2.00310248	      3.55825333	      0.06210324	     34.47872452	    -15.12585954	      0.00000000	     -0.61257228	     -6.16763397	      5.67367820	      6.63232737	      0.11575595	     38.04665381	     15.74981253	      0.00000000	     -0.09580382	      0.93016083	     -0.64285770	     -0.17791728	      1.23711390	     -0.68303631	     -0.15739610	      2.26159304	     -0.68303631	     -0.10949419	      2.26159304	     -0.56250049	     -0.08896343	      1.89678396	     -0.52232188	     -0.05474230	      1.44081912	     -0.48214328	     -0.68431713	     10.52216532	     -3.57538167	      0.00000000	      0.00000000	      7.91194839	      1.16658403	      0.34061242	     54.55415871	    -14.06389198	     -2.56583221	     84.91241947	     88.57506693	    -18.50071752	    -12.81218791	     43.09401973	    -17.08541497	      0.34477183	     98.71019371	     89.25326357	    -19.53161089	    -11.72787907
      1.61666667	      5.15683657	     -0.02325608	    104.99560480	      0.19401281	      0.83473818	      0.66531648	     -2.30913742	      5.99285311	      3.64584683	      3.75705013	      0.06557289	     34.16114613	    -15.49364350	      0.00000000	     -0.36826627	     -6.27208567	      4.01763985	      6.85798182	      0.11969436	     38.24489592	     15.97100539	      0.00000000	     -0.03104262	      1.00509654	     -0.63501012	     -0.05764925	      1.33677840	     -0.67469825	     -0.05099992	      2.44379172	     -0.67469825	     -0.03547861	      2.44379172	     -0.55563385	     -0.02882618	      2.04959286	     -0.51594572	     -0.01773775	      1.55689454	     -0.47625759	     -0.22173435	     11.36985305	     -3.53173578	      0.00000000	      0.00000000	      7.83683090	      0.34686724	      2.96634660	     53.07724569	    -14.13125809	      0.06628366	     84.13585328	     88.15958968	    -20.25623131	    -13.42573555	     39.36387009	    -16.18852486	     -1.07547069	     99.15200962	     89.15882425	    -17.93065030	    -13.37771900
      1.63333333	      5.26758600	     -0.59624457	    104.45490173	      0.19391035	      0.83372171	      0.66350451	     -1.78359899	      5.91346655	      4.63261206	      3.95828744	      0.06908515	     34.11048718	    -15.71856273	      0.00000000	      0.08940332	     -6.23240076	      3.26443755	      6.98259990	      0.12186936	     38.38834186	     15.96817920	      0.00000000	      0.03037902	      1.03890514	     -0.75762952	      0.05641688	      1.38174383	     -0.80498136	      0.04990970	      2.52599395	     -0.80498136	      0.03472018	      2.52599395	     -0.66292583	      0.02820996	      2.11853536	     -0.61557398	      0.01735857	      1.60926406	     -0.56822214	      0.21699432	     11.75230271	     -4.21370810	      0.00000000	      0.00000000	      8.46348378	     -0.25734615	      5.19259755	     51.12313882	    -13.55861009	      2.07476564	     83.91816387	     87.60404805	    -19.87972305	    -13.22730286	     35.31480712	    -15.30539466	     -2.74143320	    100.20364681	     88.97449087	    -16.50660696	    -14.66422653
      1.65000000	      5.46628632	     -1.28668351	    104.02973051	      0.19377781	      0.83249700	      0.66172503	     -1.14293633	      5.91891381	      5.65562176	      4.01115754	      0.07000791	     34.04036330	    -16.19661873	      0.00000000	      0.71004478	     -6.25828743	      2.67490492	      7.05292714	      0.12309680	     38.64573932	     16.12355058	      0.00000000	      0.07673652	      1.08754142	     -0.95623803	      0.14250738	      1.44643009	     -1.01600291	      0.12607042	      2.64424821	     -1.01600291	      0.08770216	      2.64424821	     -0.83670827	      0.07125753	      2.21771446	     -0.77694340	      0.04384724	      1.68460166	     -0.71717852	      0.54812126	     12.30248604	     -5.31830904	      0.00000000	      0.00000000	      9.85559309	     -0.39114505	      8.62185243	     49.00152423	    -12.58890389	      4.30845215	     84.11965933	     86.57422386	    -18.77628139	    -12.83388168	     30.61990279	    -14.04993503	     -5.45330337	    102.00170500	     88.65292252	    -13.21773088	    -14.80960597
      1.66666667	      5.71083309	     -2.05602586	    103.64143854	      0.19403560	      0.83115425	      0.66004850	     -0.38091727	      5.98287999	      6.21625229	      3.98686210	      0.06958387	     34.19883528	    -16.37889815	      0.00000000	      1.43156851	     -6.33707337	      2.37315538	      7.09540401	      0.12383816	     38.87476519	     16.18170671	      0.00000000	      0.12546780	      1.13291308	     -1.09967798	      0.23300625	      1.50677440	     -1.16840786	      0.20613105	      2.75456486	     -1.16840786	      0.14339715	      2.75456486	     -0.96221823	      0.11650940	      2.31023635	     -0.89348836	      0.07169230	      1.75488236	     -0.82475849	      0.89620395	     12.81573934	     -6.11607903	      0.00000000	      0.00000000	     11.52921065	     -0.46704283	     11.63849118	     46.11687011	    -11.78129415	      6.15834888	     85.25918416	     84.24579249	    -16.54153944	    -11.66672661	     25.90668928	    -12.52108584	     -7.79807234	    103.69822068	     88.01567432	     -9.31530310	    -13.87322875
